<svg width="144" height="130" viewBox="0 0 144 130" fill="none" xmlns="http://www.w3.org/2000/svg">
<path fill-rule="evenodd" clip-rule="evenodd" d="M7.46659 0.272583C-0.576468 2.51455 3.03682 45.6 6.22416 61.9762C2.23953 68.1245 0.012207 74.9917 0.012207 82.2367C0.012207 108.55 29.393 129.881 65.6361 129.881C101.879 129.881 131.26 108.55 131.26 82.2367C131.26 72.3441 127.107 63.1557 119.998 55.5402C131.992 42.0616 146.992 21.9638 142.195 17.3337C136.638 11.9712 97.5372 28.339 82.7614 36.2309C77.3019 35.1623 71.5607 34.5923 65.6361 34.5923C57.1306 34.5923 49.0029 35.7671 41.5443 37.9055C31.5451 21.5621 14.5601 -1.7047 7.46659 0.272583Z" fill="#FFE312"/>
<path d="M83.5447 90.0935C84.2524 90.1605 84.7966 90.7561 84.7619 91.4662C84.6432 93.8984 84.1793 96.293 83.3872 98.5493C82.4594 101.192 81.0995 103.593 79.3851 105.616C77.6708 107.639 75.6355 109.243 73.3956 110.338C71.1557 111.432 68.755 111.996 66.3306 111.996C63.9061 111.996 61.5054 111.432 59.2655 110.338C57.0256 109.243 54.9904 107.639 53.276 105.616C51.5617 103.593 50.2018 101.192 49.274 98.5493C48.4809 96.2901 48.0168 93.8924 47.8988 91.457C47.8645 90.7508 48.4029 90.1571 49.1064 90.0858C55.6589 89.4223 60.9345 89.1022 66.3306 89.1177C71.5378 89.1328 76.8573 89.4604 83.5447 90.0935Z" fill="#ED653B"/>
<path fill-rule="evenodd" clip-rule="evenodd" d="M79.4127 105.583C79.4035 105.594 79.3943 105.605 79.3852 105.616C77.6708 107.639 75.6356 109.243 73.3957 110.338C71.1558 111.432 68.7551 111.996 66.3306 111.996C63.9062 111.996 61.5055 111.432 59.2655 110.338C57.0256 109.243 54.9904 107.639 53.2761 105.616C52.9928 105.282 52.7192 104.937 52.4557 104.583C54.6415 99.162 59.7718 95.3567 65.7523 95.3567C72.0944 95.3567 77.4804 99.636 79.4127 105.583Z" fill="#FEB1AA"/>
<ellipse cx="65.7351" cy="80.1495" rx="5.95546" ry="1.5599" fill="#323232"/>
<ellipse cx="33.5755" cy="71.8296" rx="11.9109" ry="11.9592" fill="#323232"/>
<ellipse cx="37.0898" cy="67.1496" rx="5.35991" ry="5.19966" fill="white"/>
<ellipse cx="28.7523" cy="70.7894" rx="1.78664" ry="1.5599" fill="white"/>
<ellipse cx="31.7297" cy="73.3895" rx="1.19109" ry="1.03993" fill="white"/>
<ellipse cx="11.9109" cy="11.9592" rx="11.9109" ry="11.9592" transform="matrix(-1 0 0 1 109.805 59.8704)" fill="#323232"/>
<ellipse cx="5.35991" cy="5.19966" rx="5.35991" ry="5.19966" transform="matrix(-1 0 0 1 99.7399 61.95)" fill="white"/>
<ellipse cx="1.78664" cy="1.5599" rx="1.78664" ry="1.5599" transform="matrix(-1 0 0 1 104.504 69.2295)" fill="white"/>
<ellipse cx="1.19109" cy="1.03993" rx="1.19109" ry="1.03993" transform="matrix(-1 0 0 1 100.931 72.3496)" fill="white"/>
<path fill-rule="evenodd" clip-rule="evenodd" d="M28.6105 121.579C14.5433 114.587 4.41652 103.722 1.14563 91.1003C5.2103 87.8564 10.6825 85.8691 16.7014 85.8691C29.2471 85.8691 39.4174 94.5032 39.4174 105.154C39.4174 112.097 35.0953 118.183 28.6105 121.579Z" fill="#ED653B"/>
<path fill-rule="evenodd" clip-rule="evenodd" d="M103.991 120.901C98.1829 117.407 94.3918 111.656 94.3918 105.154C94.3918 94.5032 104.562 85.8691 117.108 85.8691C122.11 85.8691 126.735 87.2419 130.488 89.5679C127.751 102.436 117.922 113.603 103.991 120.901Z" fill="#ED653B"/>
<ellipse cx="2.35528" cy="2.10857" rx="2.35528" ry="2.10857" transform="matrix(0.950427 0.310948 -0.375314 0.926898 26.2233 92.4539)" fill="white" fill-opacity="0.35"/>
<ellipse cx="3.53292" cy="3.16286" rx="3.53292" ry="3.16286" transform="matrix(0.950427 0.310948 -0.375314 0.926898 19.7676 95.8748)" fill="white" fill-opacity="0.35"/>
<ellipse cx="2.35528" cy="2.10857" rx="2.35528" ry="2.10857" transform="matrix(-0.950427 0.310948 0.375314 0.926898 106.438 92.4536)" fill="white" fill-opacity="0.35"/>
<ellipse cx="3.53292" cy="3.16286" rx="3.53292" ry="3.16286" transform="matrix(-0.950427 0.310948 0.375314 0.926898 112.894 95.8745)" fill="white" fill-opacity="0.35"/>
<path fill-rule="evenodd" clip-rule="evenodd" d="M4.01992 46.4702C1.97391 27.2421 1.3582 1.97536 7.46737 0.272461C12.0148 -0.995117 20.6274 8.11189 28.8585 19.1186C16.2281 22.9902 6.43462 33.4391 4.01992 46.4702Z" fill="#323232"/>
<path fill-rule="evenodd" clip-rule="evenodd" d="M116.77 21.5149C125.008 28.2216 127.719 40.1838 123.251 51.806C134.502 38.6121 146.566 21.5523 142.195 17.3335C139.48 14.713 128.753 17.2818 116.77 21.5149Z" fill="#323232"/>
</svg>
